# xmcd
#
# Track frame offsets:
# 150
# 11930
# 38910
# 68897
# 86880
# 102830
# 158305
#
# Disc length: 2658 seconds
#
#
# Revision: 8
# Processed by: cddbd v1.5.1PL0 Copyright (c) Steve Scherf et al.
# Submitted via: FreeRIP 2.90 
#
DISCID=500a6007
DTITLE=Bile - Biledegradable
DYEAR=1997
DGENRE=Industrial
TTITLE0=My Generation
TTITLE1=Rubber Love
TTITLE2=Degradable
TTITLE3=Fascion (Demo)
TTITLE4=My Generation (Original Intro)
TTITLE5=The Phantom God
TTITLE6=Planet Weather Control
EXTD=
EXTT0=
EXTT1=
EXTT2=
EXTT3=
EXTT4=
EXTT5=
EXTT6=
PLAYORDER=
